<mxfile host="Electron" modified="2024-01-29T18:45:42.388Z" agent="Mozilla/5.0 (Macintosh; Intel Mac OS X 10_15_7) AppleWebKit/537.36 (KHTML, like Gecko) draw.io/23.0.2 Chrome/120.0.6099.109 Electron/28.1.0 Safari/537.36" etag="R5XqK_5bNkSC7FSPgc0p" version="23.0.2" type="device">
  <diagram name="Page-1" id="H6BRoElDJw14OIX17lq1">
    <mxGraphModel dx="1877" dy="1320" grid="1" gridSize="10" guides="1" tooltips="1" connect="1" arrows="1" fold="1" page="1" pageScale="1" pageWidth="1169" pageHeight="827" math="0" shadow="0">
      <root>
        <mxCell id="0" />
        <mxCell id="1" parent="0" />
        <mxCell id="6R_75p3h9hvrpxjOI1gK-56" value="" style="rounded=0;whiteSpace=wrap;html=1;" vertex="1" parent="1">
          <mxGeometry y="11" width="1350" height="809" as="geometry" />
        </mxCell>
        <mxCell id="6R_75p3h9hvrpxjOI1gK-50" value="" style="rounded=1;arcSize=2;dashed=1;strokeColor=#ff0000;fillColor=none;gradientColor=none;dashPattern=8 4;strokeWidth=2;" vertex="1" parent="1">
          <mxGeometry x="300.25" y="70.5" width="1019.75" height="619.5" as="geometry" />
        </mxCell>
        <mxCell id="6R_75p3h9hvrpxjOI1gK-28" style="edgeStyle=orthogonalEdgeStyle;rounded=0;orthogonalLoop=1;jettySize=auto;html=1;exitX=0;exitY=0.5;exitDx=0;exitDy=0;entryX=0;entryY=0.5;entryDx=0;entryDy=0;fillColor=#008a00;strokeColor=#005700;strokeWidth=2;" edge="1" parent="1" source="6R_75p3h9hvrpxjOI1gK-1" target="6R_75p3h9hvrpxjOI1gK-27">
          <mxGeometry relative="1" as="geometry">
            <Array as="points">
              <mxPoint x="20" y="140" />
              <mxPoint x="20" y="470" />
            </Array>
          </mxGeometry>
        </mxCell>
        <mxCell id="6R_75p3h9hvrpxjOI1gK-1" value="SPI" style="rounded=1;whiteSpace=wrap;html=1;fontStyle=1;fillColor=#008a00;fontColor=#ffffff;strokeColor=#005700;" vertex="1" parent="1">
          <mxGeometry x="40" y="110" width="120" height="60" as="geometry" />
        </mxCell>
        <mxCell id="6R_75p3h9hvrpxjOI1gK-29" style="edgeStyle=orthogonalEdgeStyle;rounded=0;orthogonalLoop=1;jettySize=auto;html=1;exitX=0;exitY=0.5;exitDx=0;exitDy=0;entryX=0;entryY=0.5;entryDx=0;entryDy=0;fillColor=#008a00;strokeColor=#005700;strokeWidth=2;" edge="1" parent="1" source="6R_75p3h9hvrpxjOI1gK-2" target="6R_75p3h9hvrpxjOI1gK-27">
          <mxGeometry relative="1" as="geometry" />
        </mxCell>
        <mxCell id="6R_75p3h9hvrpxjOI1gK-2" value="Pre-AOI" style="rounded=1;whiteSpace=wrap;html=1;fontStyle=1;fillColor=#008a00;fontColor=#ffffff;strokeColor=#005700;" vertex="1" parent="1">
          <mxGeometry x="40" y="240" width="120" height="60" as="geometry" />
        </mxCell>
        <mxCell id="6R_75p3h9hvrpxjOI1gK-30" style="edgeStyle=orthogonalEdgeStyle;rounded=0;orthogonalLoop=1;jettySize=auto;html=1;exitX=0;exitY=0.5;exitDx=0;exitDy=0;entryX=0;entryY=0.5;entryDx=0;entryDy=0;fillColor=#008a00;strokeColor=#005700;strokeWidth=2;" edge="1" parent="1" source="6R_75p3h9hvrpxjOI1gK-3" target="6R_75p3h9hvrpxjOI1gK-27">
          <mxGeometry relative="1" as="geometry" />
        </mxCell>
        <mxCell id="6R_75p3h9hvrpxjOI1gK-3" value="Post-AOI" style="rounded=1;whiteSpace=wrap;html=1;fontStyle=1;fillColor=#008a00;fontColor=#ffffff;strokeColor=#005700;" vertex="1" parent="1">
          <mxGeometry x="40" y="350" width="120" height="60" as="geometry" />
        </mxCell>
        <mxCell id="6R_75p3h9hvrpxjOI1gK-14" style="edgeStyle=orthogonalEdgeStyle;rounded=0;orthogonalLoop=1;jettySize=auto;html=1;entryX=0;entryY=0.25;entryDx=0;entryDy=0;exitX=1;exitY=0.25;exitDx=0;exitDy=0;fillColor=#d5e8d4;strokeColor=#82b366;strokeWidth=2;" edge="1" parent="1" source="6R_75p3h9hvrpxjOI1gK-4" target="6R_75p3h9hvrpxjOI1gK-13">
          <mxGeometry relative="1" as="geometry" />
        </mxCell>
        <mxCell id="6R_75p3h9hvrpxjOI1gK-4" value="M2M Connector" style="rounded=1;whiteSpace=wrap;html=1;fontStyle=1;fillColor=#d5e8d4;strokeColor=#82b366;" vertex="1" parent="1">
          <mxGeometry x="320" y="230" width="160" height="80" as="geometry" />
        </mxCell>
        <mxCell id="6R_75p3h9hvrpxjOI1gK-7" value="" style="endArrow=classic;startArrow=classic;html=1;rounded=0;exitX=1;exitY=0.5;exitDx=0;exitDy=0;entryX=0;entryY=0.25;entryDx=0;entryDy=0;fillColor=#008a00;strokeColor=#005700;strokeWidth=2;" edge="1" parent="1" source="6R_75p3h9hvrpxjOI1gK-1" target="6R_75p3h9hvrpxjOI1gK-4">
          <mxGeometry width="50" height="50" relative="1" as="geometry">
            <mxPoint x="240" y="160" as="sourcePoint" />
            <mxPoint x="290" y="110" as="targetPoint" />
          </mxGeometry>
        </mxCell>
        <mxCell id="6R_75p3h9hvrpxjOI1gK-8" value="" style="endArrow=classic;startArrow=classic;html=1;rounded=0;exitX=1;exitY=0.5;exitDx=0;exitDy=0;entryX=0;entryY=0.5;entryDx=0;entryDy=0;fillColor=#008a00;strokeColor=#005700;strokeWidth=2;" edge="1" parent="1" source="6R_75p3h9hvrpxjOI1gK-2" target="6R_75p3h9hvrpxjOI1gK-4">
          <mxGeometry width="50" height="50" relative="1" as="geometry">
            <mxPoint x="170" y="150" as="sourcePoint" />
            <mxPoint x="410" y="260" as="targetPoint" />
          </mxGeometry>
        </mxCell>
        <mxCell id="6R_75p3h9hvrpxjOI1gK-9" value="" style="endArrow=classic;startArrow=classic;html=1;rounded=0;exitX=1;exitY=0.5;exitDx=0;exitDy=0;entryX=0;entryY=0.75;entryDx=0;entryDy=0;fillColor=#008a00;strokeColor=#005700;strokeWidth=2;" edge="1" parent="1" source="6R_75p3h9hvrpxjOI1gK-3" target="6R_75p3h9hvrpxjOI1gK-4">
          <mxGeometry width="50" height="50" relative="1" as="geometry">
            <mxPoint x="170" y="150" as="sourcePoint" />
            <mxPoint x="410" y="260" as="targetPoint" />
          </mxGeometry>
        </mxCell>
        <mxCell id="6R_75p3h9hvrpxjOI1gK-10" value="WebSocket" style="text;html=1;strokeColor=none;fillColor=none;align=center;verticalAlign=middle;whiteSpace=wrap;rounded=0;fontStyle=1;rotation=30;" vertex="1" parent="1">
          <mxGeometry x="210" y="160" width="60" height="30" as="geometry" />
        </mxCell>
        <mxCell id="6R_75p3h9hvrpxjOI1gK-11" value="WebSocket" style="text;html=1;strokeColor=none;fillColor=none;align=center;verticalAlign=middle;whiteSpace=wrap;rounded=0;fontStyle=1" vertex="1" parent="1">
          <mxGeometry x="200" y="240" width="60" height="30" as="geometry" />
        </mxCell>
        <mxCell id="6R_75p3h9hvrpxjOI1gK-12" value="WebSocket" style="text;html=1;strokeColor=none;fillColor=none;align=center;verticalAlign=middle;whiteSpace=wrap;rounded=0;fontStyle=1;rotation=-30;" vertex="1" parent="1">
          <mxGeometry x="210" y="340" width="60" height="30" as="geometry" />
        </mxCell>
        <mxCell id="6R_75p3h9hvrpxjOI1gK-16" style="edgeStyle=orthogonalEdgeStyle;rounded=0;orthogonalLoop=1;jettySize=auto;html=1;exitX=0.25;exitY=1;exitDx=0;exitDy=0;entryX=0.5;entryY=0;entryDx=0;entryDy=0;fillColor=#ffe6cc;strokeColor=#d79b00;strokeWidth=2;" edge="1" parent="1" source="6R_75p3h9hvrpxjOI1gK-13" target="6R_75p3h9hvrpxjOI1gK-17">
          <mxGeometry relative="1" as="geometry" />
        </mxCell>
        <mxCell id="6R_75p3h9hvrpxjOI1gK-25" style="edgeStyle=orthogonalEdgeStyle;rounded=0;orthogonalLoop=1;jettySize=auto;html=1;exitX=0.75;exitY=1;exitDx=0;exitDy=0;fillColor=#ffe6cc;strokeColor=#d79b00;strokeWidth=2;" edge="1" parent="1" source="6R_75p3h9hvrpxjOI1gK-13" target="6R_75p3h9hvrpxjOI1gK-23">
          <mxGeometry relative="1" as="geometry" />
        </mxCell>
        <mxCell id="6R_75p3h9hvrpxjOI1gK-26" style="edgeStyle=orthogonalEdgeStyle;rounded=0;orthogonalLoop=1;jettySize=auto;html=1;exitX=0.5;exitY=1;exitDx=0;exitDy=0;entryX=0.5;entryY=0;entryDx=0;entryDy=0;fillColor=#ffe6cc;strokeColor=#d79b00;strokeWidth=2;" edge="1" parent="1" source="6R_75p3h9hvrpxjOI1gK-13" target="6R_75p3h9hvrpxjOI1gK-19">
          <mxGeometry relative="1" as="geometry" />
        </mxCell>
        <mxCell id="6R_75p3h9hvrpxjOI1gK-34" style="edgeStyle=orthogonalEdgeStyle;rounded=0;orthogonalLoop=1;jettySize=auto;html=1;exitX=0.25;exitY=0;exitDx=0;exitDy=0;entryX=0.25;entryY=1;entryDx=0;entryDy=0;fillColor=#ffe6cc;strokeColor=#d79b00;strokeWidth=2;" edge="1" parent="1" source="6R_75p3h9hvrpxjOI1gK-13" target="6R_75p3h9hvrpxjOI1gK-33">
          <mxGeometry relative="1" as="geometry" />
        </mxCell>
        <mxCell id="6R_75p3h9hvrpxjOI1gK-37" style="edgeStyle=orthogonalEdgeStyle;rounded=0;orthogonalLoop=1;jettySize=auto;html=1;exitX=0;exitY=0.75;exitDx=0;exitDy=0;entryX=1;entryY=0.75;entryDx=0;entryDy=0;fillColor=#ffe6cc;strokeColor=#d79b00;strokeWidth=2;" edge="1" parent="1" source="6R_75p3h9hvrpxjOI1gK-13" target="6R_75p3h9hvrpxjOI1gK-4">
          <mxGeometry relative="1" as="geometry" />
        </mxCell>
        <mxCell id="6R_75p3h9hvrpxjOI1gK-13" value="Kafka Event Broker Cluster" style="rounded=1;whiteSpace=wrap;html=1;fontStyle=1;fillColor=#ffe6cc;strokeColor=#d79b00;" vertex="1" parent="1">
          <mxGeometry x="560" y="230" width="680" height="80" as="geometry" />
        </mxCell>
        <mxCell id="6R_75p3h9hvrpxjOI1gK-39" style="edgeStyle=orthogonalEdgeStyle;rounded=0;orthogonalLoop=1;jettySize=auto;html=1;exitX=0.5;exitY=1;exitDx=0;exitDy=0;exitPerimeter=0;entryX=0.25;entryY=0;entryDx=0;entryDy=0;fillColor=#f8cecc;strokeColor=#b85450;strokeWidth=2;" edge="1" parent="1" source="6R_75p3h9hvrpxjOI1gK-15" target="6R_75p3h9hvrpxjOI1gK-38">
          <mxGeometry relative="1" as="geometry" />
        </mxCell>
        <mxCell id="6R_75p3h9hvrpxjOI1gK-15" value="InfluxDB" style="shape=cylinder3;whiteSpace=wrap;html=1;boundedLbl=1;backgroundOutline=1;size=15;fontStyle=1;fillColor=#f8cecc;strokeColor=#b85450;" vertex="1" parent="1">
          <mxGeometry x="580" y="440" width="160" height="80" as="geometry" />
        </mxCell>
        <mxCell id="6R_75p3h9hvrpxjOI1gK-18" style="edgeStyle=orthogonalEdgeStyle;rounded=0;orthogonalLoop=1;jettySize=auto;html=1;exitX=0.5;exitY=1;exitDx=0;exitDy=0;fillColor=#f8cecc;strokeColor=#b85450;strokeWidth=2;" edge="1" parent="1" source="6R_75p3h9hvrpxjOI1gK-17" target="6R_75p3h9hvrpxjOI1gK-15">
          <mxGeometry relative="1" as="geometry" />
        </mxCell>
        <mxCell id="6R_75p3h9hvrpxjOI1gK-17" value="InfluxDB Connector&lt;br&gt;(Store Inspection Data)" style="rounded=1;whiteSpace=wrap;html=1;fillColor=#f8cecc;strokeColor=#b85450;fontStyle=1" vertex="1" parent="1">
          <mxGeometry x="560" y="350" width="200" height="60" as="geometry" />
        </mxCell>
        <mxCell id="6R_75p3h9hvrpxjOI1gK-21" style="edgeStyle=orthogonalEdgeStyle;rounded=0;orthogonalLoop=1;jettySize=auto;html=1;exitX=0.5;exitY=1;exitDx=0;exitDy=0;fillColor=#f8cecc;strokeColor=#b85450;strokeWidth=2;" edge="1" parent="1" source="6R_75p3h9hvrpxjOI1gK-19" target="6R_75p3h9hvrpxjOI1gK-20">
          <mxGeometry relative="1" as="geometry" />
        </mxCell>
        <mxCell id="6R_75p3h9hvrpxjOI1gK-19" value="Line Management&lt;br&gt;Processing" style="rounded=1;whiteSpace=wrap;html=1;fillColor=#f8cecc;strokeColor=#b85450;fontStyle=1" vertex="1" parent="1">
          <mxGeometry x="800" y="350" width="200" height="60" as="geometry" />
        </mxCell>
        <mxCell id="6R_75p3h9hvrpxjOI1gK-40" style="edgeStyle=orthogonalEdgeStyle;rounded=0;orthogonalLoop=1;jettySize=auto;html=1;exitX=0.5;exitY=1;exitDx=0;exitDy=0;exitPerimeter=0;entryX=0.5;entryY=0;entryDx=0;entryDy=0;fillColor=#f8cecc;strokeColor=#b85450;strokeWidth=2;" edge="1" parent="1" source="6R_75p3h9hvrpxjOI1gK-20" target="6R_75p3h9hvrpxjOI1gK-38">
          <mxGeometry relative="1" as="geometry" />
        </mxCell>
        <mxCell id="6R_75p3h9hvrpxjOI1gK-20" value="MariaDB" style="shape=cylinder3;whiteSpace=wrap;html=1;boundedLbl=1;backgroundOutline=1;size=15;fontStyle=1;fillColor=#f8cecc;strokeColor=#b85450;" vertex="1" parent="1">
          <mxGeometry x="820" y="440" width="160" height="80" as="geometry" />
        </mxCell>
        <mxCell id="6R_75p3h9hvrpxjOI1gK-22" style="edgeStyle=orthogonalEdgeStyle;rounded=0;orthogonalLoop=1;jettySize=auto;html=1;exitX=0.5;exitY=1;exitDx=0;exitDy=0;fillColor=#f8cecc;strokeColor=#b85450;strokeWidth=2;" edge="1" source="6R_75p3h9hvrpxjOI1gK-23" target="6R_75p3h9hvrpxjOI1gK-24" parent="1">
          <mxGeometry relative="1" as="geometry" />
        </mxCell>
        <mxCell id="6R_75p3h9hvrpxjOI1gK-23" value="Performance Statistic&lt;br&gt;Processing" style="rounded=1;whiteSpace=wrap;html=1;fillColor=#f8cecc;strokeColor=#b85450;fontStyle=1" vertex="1" parent="1">
          <mxGeometry x="1040" y="350" width="200" height="60" as="geometry" />
        </mxCell>
        <mxCell id="6R_75p3h9hvrpxjOI1gK-41" style="edgeStyle=orthogonalEdgeStyle;rounded=0;orthogonalLoop=1;jettySize=auto;html=1;exitX=0.5;exitY=1;exitDx=0;exitDy=0;exitPerimeter=0;entryX=0.75;entryY=0;entryDx=0;entryDy=0;fillColor=#f8cecc;strokeColor=#b85450;strokeWidth=2;" edge="1" parent="1" source="6R_75p3h9hvrpxjOI1gK-24" target="6R_75p3h9hvrpxjOI1gK-38">
          <mxGeometry relative="1" as="geometry" />
        </mxCell>
        <mxCell id="6R_75p3h9hvrpxjOI1gK-24" value="Elasticsearch" style="shape=cylinder3;whiteSpace=wrap;html=1;boundedLbl=1;backgroundOutline=1;size=15;fontStyle=1;fillColor=#f8cecc;strokeColor=#b85450;" vertex="1" parent="1">
          <mxGeometry x="1060" y="440" width="160" height="80" as="geometry" />
        </mxCell>
        <mxCell id="6R_75p3h9hvrpxjOI1gK-46" style="edgeStyle=orthogonalEdgeStyle;rounded=0;orthogonalLoop=1;jettySize=auto;html=1;exitX=1;exitY=0.25;exitDx=0;exitDy=0;entryX=0;entryY=0.25;entryDx=0;entryDy=0;fillColor=#e1d5e7;strokeColor=#9673a6;strokeWidth=2;" edge="1" parent="1" source="6R_75p3h9hvrpxjOI1gK-27" target="6R_75p3h9hvrpxjOI1gK-33">
          <mxGeometry relative="1" as="geometry">
            <Array as="points">
              <mxPoint x="510" y="450" />
              <mxPoint x="510" y="138" />
            </Array>
          </mxGeometry>
        </mxCell>
        <mxCell id="6R_75p3h9hvrpxjOI1gK-27" value="File Storage Server" style="rounded=0;whiteSpace=wrap;html=1;fillColor=#e1d5e7;strokeColor=#9673a6;fontStyle=1" vertex="1" parent="1">
          <mxGeometry x="320" y="430" width="160" height="80" as="geometry" />
        </mxCell>
        <mxCell id="6R_75p3h9hvrpxjOI1gK-32" value="File Transfer Protocol" style="text;html=1;strokeColor=none;fillColor=none;align=center;verticalAlign=middle;whiteSpace=wrap;rounded=0;fontStyle=1" vertex="1" parent="1">
          <mxGeometry x="80" y="440" width="160" height="30" as="geometry" />
        </mxCell>
        <mxCell id="6R_75p3h9hvrpxjOI1gK-35" style="edgeStyle=orthogonalEdgeStyle;rounded=0;orthogonalLoop=1;jettySize=auto;html=1;exitX=0.75;exitY=1;exitDx=0;exitDy=0;entryX=0.75;entryY=0;entryDx=0;entryDy=0;fillColor=#dae8fc;strokeColor=#6c8ebf;strokeWidth=2;" edge="1" parent="1" source="6R_75p3h9hvrpxjOI1gK-33" target="6R_75p3h9hvrpxjOI1gK-13">
          <mxGeometry relative="1" as="geometry" />
        </mxCell>
        <mxCell id="6R_75p3h9hvrpxjOI1gK-33" value="AI-Based Automatic Process Optimizer" style="rounded=1;whiteSpace=wrap;html=1;fontStyle=1;fillColor=#dae8fc;strokeColor=#6c8ebf;" vertex="1" parent="1">
          <mxGeometry x="560" y="120" width="680" height="70" as="geometry" />
        </mxCell>
        <mxCell id="6R_75p3h9hvrpxjOI1gK-36" style="edgeStyle=orthogonalEdgeStyle;rounded=0;orthogonalLoop=1;jettySize=auto;html=1;exitX=1;exitY=0.5;exitDx=0;exitDy=0;entryX=1;entryY=0.5;entryDx=0;entryDy=0;entryPerimeter=0;fillColor=#dae8fc;strokeColor=#6c8ebf;strokeWidth=2;" edge="1" parent="1" source="6R_75p3h9hvrpxjOI1gK-33" target="6R_75p3h9hvrpxjOI1gK-24">
          <mxGeometry relative="1" as="geometry">
            <Array as="points">
              <mxPoint x="1270" y="155" />
              <mxPoint x="1270" y="480" />
            </Array>
          </mxGeometry>
        </mxCell>
        <mxCell id="6R_75p3h9hvrpxjOI1gK-38" value="Monitor Web App" style="rounded=1;whiteSpace=wrap;html=1;fontStyle=1;fillColor=#b0e3e6;strokeColor=#0e8088;" vertex="1" parent="1">
          <mxGeometry x="800" y="590" width="200" height="60" as="geometry" />
        </mxCell>
        <mxCell id="6R_75p3h9hvrpxjOI1gK-42" style="edgeStyle=orthogonalEdgeStyle;rounded=0;orthogonalLoop=1;jettySize=auto;html=1;exitX=0.145;exitY=1;exitDx=0;exitDy=-4.35;exitPerimeter=0;fillColor=#f8cecc;strokeColor=#b85450;strokeWidth=2;entryX=0;entryY=0.75;entryDx=0;entryDy=0;" edge="1" parent="1" source="6R_75p3h9hvrpxjOI1gK-15" target="6R_75p3h9hvrpxjOI1gK-33">
          <mxGeometry relative="1" as="geometry">
            <mxPoint x="670" y="530" as="sourcePoint" />
            <mxPoint x="500" y="100" as="targetPoint" />
            <Array as="points">
              <mxPoint x="603" y="530" />
              <mxPoint x="540" y="530" />
              <mxPoint x="540" y="173" />
            </Array>
          </mxGeometry>
        </mxCell>
        <mxCell id="6R_75p3h9hvrpxjOI1gK-44" style="edgeStyle=orthogonalEdgeStyle;rounded=0;orthogonalLoop=1;jettySize=auto;html=1;exitX=0.145;exitY=1;exitDx=0;exitDy=-4.35;exitPerimeter=0;fillColor=#f8cecc;strokeColor=#b85450;strokeWidth=2;entryX=0;entryY=0.75;entryDx=0;entryDy=0;" edge="1" parent="1" source="6R_75p3h9hvrpxjOI1gK-20" target="6R_75p3h9hvrpxjOI1gK-33">
          <mxGeometry relative="1" as="geometry">
            <mxPoint x="533" y="516" as="sourcePoint" />
            <mxPoint x="520" y="180" as="targetPoint" />
            <Array as="points">
              <mxPoint x="843" y="530" />
              <mxPoint x="540" y="530" />
              <mxPoint x="540" y="173" />
            </Array>
          </mxGeometry>
        </mxCell>
        <mxCell id="6R_75p3h9hvrpxjOI1gK-47" style="edgeStyle=orthogonalEdgeStyle;rounded=0;orthogonalLoop=1;jettySize=auto;html=1;exitX=1;exitY=0.75;exitDx=0;exitDy=0;fillColor=#ffe6cc;strokeColor=#d79b00;strokeWidth=2;entryX=1;entryY=0.25;entryDx=0;entryDy=0;" edge="1" parent="1" source="6R_75p3h9hvrpxjOI1gK-13" target="6R_75p3h9hvrpxjOI1gK-38">
          <mxGeometry relative="1" as="geometry">
            <mxPoint x="1290" y="324" as="sourcePoint" />
            <mxPoint x="1360" y="364" as="targetPoint" />
            <Array as="points">
              <mxPoint x="1290" y="290" />
              <mxPoint x="1290" y="605" />
            </Array>
          </mxGeometry>
        </mxCell>
        <mxCell id="6R_75p3h9hvrpxjOI1gK-48" style="edgeStyle=orthogonalEdgeStyle;rounded=0;orthogonalLoop=1;jettySize=auto;html=1;exitX=1;exitY=0.75;exitDx=0;exitDy=0;entryX=0;entryY=0.5;entryDx=0;entryDy=0;fillColor=#e1d5e7;strokeColor=#9673a6;strokeWidth=2;" edge="1" parent="1" source="6R_75p3h9hvrpxjOI1gK-27" target="6R_75p3h9hvrpxjOI1gK-38">
          <mxGeometry relative="1" as="geometry">
            <mxPoint x="490" y="480" as="sourcePoint" />
            <mxPoint x="570" y="148" as="targetPoint" />
            <Array as="points">
              <mxPoint x="510" y="490" />
              <mxPoint x="510" y="620" />
            </Array>
          </mxGeometry>
        </mxCell>
        <mxCell id="6R_75p3h9hvrpxjOI1gK-49" style="edgeStyle=orthogonalEdgeStyle;rounded=0;orthogonalLoop=1;jettySize=auto;html=1;exitX=1;exitY=0.75;exitDx=0;exitDy=0;entryX=1;entryY=0.25;entryDx=0;entryDy=0;fillColor=#b0e3e6;strokeColor=#0e8088;strokeWidth=2;" edge="1" parent="1" source="6R_75p3h9hvrpxjOI1gK-38" target="6R_75p3h9hvrpxjOI1gK-13">
          <mxGeometry relative="1" as="geometry">
            <mxPoint x="1169" y="670" as="sourcePoint" />
            <mxPoint x="979" y="740" as="targetPoint" />
            <Array as="points">
              <mxPoint x="1300" y="635" />
              <mxPoint x="1300" y="250" />
            </Array>
          </mxGeometry>
        </mxCell>
        <mxCell id="6R_75p3h9hvrpxjOI1gK-51" value="KSmart Center Server" style="text;html=1;strokeColor=none;fillColor=none;align=center;verticalAlign=middle;whiteSpace=wrap;rounded=0;fontStyle=1;fontSize=18;" vertex="1" parent="1">
          <mxGeometry x="650" y="30" width="250" height="30" as="geometry" />
        </mxCell>
        <mxCell id="6R_75p3h9hvrpxjOI1gK-52" value="" style="sketch=0;outlineConnect=0;gradientColor=none;fontColor=#545B64;strokeColor=none;fillColor=#879196;dashed=0;verticalLabelPosition=bottom;verticalAlign=top;align=center;html=1;fontSize=12;fontStyle=0;aspect=fixed;shape=mxgraph.aws4.illustration_desktop;pointerEvents=1" vertex="1" parent="1">
          <mxGeometry x="850" y="710" width="100" height="91" as="geometry" />
        </mxCell>
        <mxCell id="6R_75p3h9hvrpxjOI1gK-53" value="" style="endArrow=classic;startArrow=classic;html=1;rounded=0;entryX=0.5;entryY=1;entryDx=0;entryDy=0;fillColor=#b0e3e6;strokeColor=#0e8088;strokeWidth=2;" edge="1" parent="1" source="6R_75p3h9hvrpxjOI1gK-52" target="6R_75p3h9hvrpxjOI1gK-38">
          <mxGeometry width="50" height="50" relative="1" as="geometry">
            <mxPoint x="750" y="770" as="sourcePoint" />
            <mxPoint x="910" y="680" as="targetPoint" />
          </mxGeometry>
        </mxCell>
        <mxCell id="6R_75p3h9hvrpxjOI1gK-54" value="" style="verticalLabelPosition=bottom;html=1;verticalAlign=top;align=center;strokeColor=none;fillColor=#00BEF2;shape=mxgraph.azure.azure_website;pointerEvents=1;" vertex="1" parent="1">
          <mxGeometry x="880" y="725" width="40" height="40" as="geometry" />
        </mxCell>
        <mxCell id="6R_75p3h9hvrpxjOI1gK-55" value="Operators" style="verticalLabelPosition=bottom;html=1;verticalAlign=top;align=center;strokeColor=none;fillColor=#00BEF2;shape=mxgraph.azure.user;fontStyle=1" vertex="1" parent="1">
          <mxGeometry x="760" y="720" width="47.5" height="50" as="geometry" />
        </mxCell>
      </root>
    </mxGraphModel>
  </diagram>
</mxfile>
